<?xml version="1.0" encoding="UTF-8" standalone="no"?>
<svg width="13px" height="10px" viewBox="0 0 13 10" version="1.1" xmlns="http://www.w3.org/2000/svg" xmlns:xlink="http://www.w3.org/1999/xlink">
    <!-- Generator: Sketch 41 (35326) - http://www.bohemiancoding.com/sketch -->
    <title>icon</title>
    <desc>Created with Sketch.</desc>
    <defs></defs>
    <g id="Symbols" stroke="none" stroke-width="1" fill="none" fill-rule="evenodd">
        <g id="ReWant-::-Active" transform="translate(-6.000000, -7.000000)" fill="#FFFFFF">
            <path d="M18.3732042,7.81055178 L15.7323727,7.8 L15.732145,7.80087025 C15.6550762,7.80228441 15.5805118,7.84035783 15.5390745,7.90888999 L13.7718416,10.833799 L13.7718416,8.02952834 C13.7718416,7.90943389 13.669956,7.81196593 13.5441641,7.81196593 L11.4027433,7.8 C11.3394489,7.8 11.2075098,7.80141416 11.1477445,7.84525298 C11.0972001,7.87516781 11.0600886,7.92324911 11.0462003,7.98014168 L9.33213015,10.8170467 L9.33213015,8.02952834 C9.33213015,7.90943389 9.23024446,7.81196593 9.10445264,7.81196593 L6.82767751,7.81196593 C6.70199953,7.81196593 6.6,7.90943389 6.6,8.02952834 L6.6,15.9706651 C6.6,16.0907596 6.70199953,16.1882275 6.82767751,16.1882275 L9.02909138,16.1882275 C9.1301802,16.2214058 9.24481582,16.183006 9.3002553,16.0913035 L11.0397115,13.2123001 L11.0397115,15.9706651 C11.0397115,16.0907596 11.141711,16.1882275 11.267389,16.1882275 L13.4790484,16.1882275 C13.5800233,16.2214058 13.694659,16.183006 13.7500984,16.0913035 L17.5610785,9.78384284 C17.5633553,9.7805794 17.5663151,9.77807744 17.5683642,9.77470522 L18.5686653,8.1374393 C18.6568903,7.99286908 18.548402,7.81120446 18.3732042,7.81055178" id="icon"></path>
        </g>
    </g>
</svg>